<svg xmlns="http://www.w3.org/2000/svg" viewBox="0 0 32 32" x="0px" y="0px" version="1.1" xml:space="preserve" fill="white">
  <g>
    <path d="M16 2c-.5047 0-1.0096.3375-1.0001 1.0137v3.0371c-4.715.4706-8.4779 4.2346-8.9496 8.9492H3.0137c-.5638-.008-1.0224.4521-1.0137 1.0098.01.5576.4622.9978 1.0137.9902h3.0372c.4717 4.7146 4.2346 8.4786 8.9496 8.9492v3.0371c-.01.5638.4503 1.0224 1.0079 1.0137.5576-.009.9998-.4621.9922-1.0137v-3.0371c4.7142-.4714 8.4782-4.2352 8.9496-8.9492h3.0354c1.3523.0191 1.3523-2.0191 0-2h-3.0354c-.4714-4.714-4.2354-8.4778-8.9496-8.9492V3.0137c.01-.6762-.4952-1.0137-1-1.0137zM15 8.0683v2.918c-.01.5638.4503 1.0224 1.0079 1.0137.5576-.009.9998-.4621.9922-1.0137V8.0683c3.6263.4498 6.4822 3.3055 6.932 6.9316h-2.918c-.5638-.008-1.0224.4521-1.0137 1.0098.01.5576.4622.9978 1.0137.9902h2.9181c-.4498 3.6261-3.3057 6.4819-6.932 6.9316v-2.918c.019-1.3523-2.0192-1.3523-2.0001 0v2.918c-3.6261-.4498-6.4821-3.3056-6.9319-6.9316h2.9162c1.3523.0191 1.3523-2.0191 0-2H8.0687c.4498-3.6261 3.3058-6.4819 6.9319-6.9316z"/>
  </g>
 </svg>
