<svg xmlns="http://www.w3.org/2000/svg" version="1.1" viewBox="0 0 100 100">
  <path d="M79.766 59c0 3.0859-1.8594 5.8711-4.7148 7.0508-2.8516 1.1797-6.1328 0.52734-8.3164-1.6562-2.1836-2.1836-2.8359-5.4688-1.6523-8.3203 1.1797-2.8516 3.9648-4.7109 7.0508-4.7109 4.2148 0.007813 7.6289 3.4219 7.6328 7.6367zm-10.266 0c0 1.0664 0.64453 2.0234 1.6289 2.4297s2.1133 0.17969 2.8672-0.57031c0.75391-0.75391 0.97656-1.8867 0.57031-2.8711-0.41016-0.98438-1.3672-1.625-2.4336-1.625-0.69922 0-1.3672 0.27734-1.8633 0.77344-0.49219 0.49219-0.76953 1.1641-0.76953 1.8633z" fill="#FFFFFF"/>
  <path d="M83.332 99.168H16.668c-4.1992-0.007813-8.2227-1.6758-11.191-4.6445S0.32031 86.831-0.32031 81.632v-66.664c0.007813-4.1992 1.6758-8.2227 4.6445-11.191 2.9688-2.9687 6.9922-4.6445 11.191-4.6445h66.664c4.1992 0 8.2227 1.6758 11.191 4.6445s4.6367 6.9922 4.6445 11.191v66.664c-0.007813 4.1992-1.6758 8.2227-4.6445 11.191-2.9688 2.9687-6.9922 4.6445-11.191 4.6445zm-38.23-58.168v-35.168h-13.668v25.609c-0.007813 5.0625-4.1055 9.1602-9.168 9.168h-16.434v10.746h16.434c5.0625 0.007812 9.1602 4.1094 9.168 9.168v33.645h13.668v-18.566c0.003907-4.6562 3.7773-8.4297 8.4336-8.4336h2.1719-0.003906c-1.3867-2.5195-2.2148-5.3086-2.4219-8.1758 0-3.1016 0.82422-6.1445 2.3867-8.8242h-1.4062c-5.0586-0.007813-9.1562-4.1094-9.1602-9.168zm13.18 18c0 3.5195 3.8516 10.539 10.559 19.258 0.78516 1.0195 2 1.6211 3.2891 1.6211 1.2891 0 2.5039-0.60156 3.293-1.6211 6.7109-8.7266 10.562-15.746 10.562-19.258-0.19922-7.457-6.3945-13.344-13.852-13.168-7.457 0.17578-13.652 5.7109-13.852 13.168zm30.277 8.168h5.6094v-17h-5.5742c1.5625 2.6797 2.3906 5.7266 2.3906 8.832-0.21094 2.8633-1.0352 5.6523-2.4258 8.168zm5.6094 16.164v-11.164h-8.3945c-1.9766 3.1484-4.1094 6.1953-6.3906 9.1289-1.7227 2.2617-4.4023 3.582-7.2461 3.5742-2.8438 0.007812-5.5312-1.3125-7.2578-3.5742-2.5625-3.332-4.668-6.3594-6.3867-9.1289h-4.957c-1.8984 0-3.4336 1.5352-3.4336 3.4336v18.566h33.23c5.9805-0.007813 10.828-4.8555 10.836-10.836zm-77.5 10.836h9.7656v-33.645c-0.003906-2.3008-1.8672-4.1641-4.168-4.168h-16.434v26.977c0.007813 5.9805 4.8555 10.828 10.836 10.836zm-10.836-77.5v18.941h16.434c2.3008-0.003906 4.1641-1.8672 4.168-4.168v-25.609h-9.7656c-5.9805 0.007813-10.828 4.8555-10.836 10.836zm77.5-10.836h-33.234l0.003906 35.168c0 2.3008 1.8633 4.1641 4.1641 4.168h5.668c3.4453-2.8008 7.75-4.3281 12.191-4.3281s8.7461 1.5273 12.191 4.3281h9.8516v-28.5c-0.007813-5.9805-4.8555-10.828-10.836-10.836z" fill="#FFFFFF"/>
</svg>
