<svg xmlns="http://www.w3.org/2000/svg" version="1.1" viewBox="0.0 0.0 90.0 100.0" fill="white">
  <path d="m29.5 90c0 0.82812-0.67188 1.5-1.5 1.5-10.75 0-19.5-8.75-19.5-19.5 0-0.82812 0.67188-1.5 1.5-1.5s1.5 0.67188 1.5 1.5c0 9.1016 7.3984 16.5 16.5 16.5 0.82812 0 1.5 0.67188 1.5 1.5zm-1.5-11.5c-3.5781 0-6.5-2.9219-6.5-6.5 0-0.82812-0.67188-1.5-1.5-1.5s-1.5 0.67188-1.5 1.5c0 5.2383 4.2617 9.5 9.5 9.5 0.82812 0 1.5-0.67188 1.5-1.5s-0.67188-1.5-1.5-1.5zm63.672-3.8008-16.973 16.973c-0.28906 0.28906-0.67969 0.44141-1.0586 0.44141s-0.76953-0.14844-1.0586-0.44141l-18.391-18.383c-0.58984-0.58984-0.58984-1.5391 0-2.1211l7.4219-7.4219-3.5391-3.5391-7.3906 7.3906c-0.69141 0.69141-1.6016 1.0391-2.5117 1.0391-0.51953 0-1.0312-0.12891-1.5117-0.35156 0.60156 2.3086 0.83984 4.7695 0.66016 7.3203-0.19922 2.9688-0.94922 5.9102-2.2188 8.75-0.19922 0.44922-0.60937 0.76953-1.1016 0.85938-0.089844 0.019531-0.17969 0.019531-0.26953 0.019531-0.39062 0-0.78125-0.16016-1.0586-0.44141l-26.863-26.863c-0.35156-0.35156-0.5-0.85156-0.42188-1.3281 0.078125-0.48047 0.41016-0.89844 0.85938-1.1016 5.3711-2.4219 11.039-2.8789 16.078-1.5508-0.62891-1.3203-0.42188-2.9492 0.67188-4.0391l7.3906-7.3906-3.5391-3.5391-7.4219 7.4219c-0.28906 0.28906-0.67969 0.44141-1.0586 0.44141-0.37891 0-0.76953-0.14844-1.0586-0.44141l-18.367-18.371c-0.58984-0.58984-0.58984-1.5391 0-2.1211l16.969-16.969c0.58984-0.58984 1.5391-0.58984 2.1211 0l18.379 18.379c0.58984 0.58984 0.58984 1.5391 0 2.1211l-7.4219 7.4219 3.5391 3.5391 13.051-13.051c1.3789-1.3789 3.6289-1.3789 5.0195 0l0.32031 0.32031 3.4883-3.4883c1.9688-1.9688 5.1914-1.9688 7.1602 0l4.8594 4.8594c1.9688 1.9688 1.9688 5.1914 0 7.1602l-3.4883 3.4883 0.32031 0.32031c0.67188 0.67188 1.0391 1.5586 1.0391 2.5117 0 0.94922-0.37109 1.8398-1.0391 2.5117l-13.059 13.043 3.5391 3.5391 7.4219-7.4219c0.58984-0.58984 1.5391-0.58984 2.1211 0l18.379 18.379c0.60156 0.58594 0.60156 1.5352 0.011719 2.125zm-71.062-56.211 16.262 16.262 6.3594-6.3594-16.262-16.27zm14.141 18.383-16.262-16.262-6.3594 6.3594 16.262 16.262zm36.059 0.70703 3.4883-3.4883c0.80078-0.80859 0.80078-2.1094 0-2.9219l-4.8594-4.8594c-0.80859-0.80078-2.1094-0.80078-2.9219 0l-3.4883 3.4883zm-31.457 23.691c-4.9297-4.9297-12.512-6.3398-19.801-3.8398l23.641 23.641c0.64062-1.8594 1.0195-3.7617 1.1484-5.6719 0.39062-5.5078-1.3789-10.52-4.9883-14.129zm17.258-3.8281c0.070313-0.17969 0.17969-0.35156 0.32812-0.5 0.14844-0.14844 0.32031-0.26172 0.5-0.32812l13.699-13.699c0.14062-0.14062 0.16016-0.30078 0.16016-0.39062 0-0.089844-0.019531-0.25-0.16016-0.39063l-12.656-12.656c-0.21094-0.21094-0.55859-0.21094-0.76953 0l-22.582 22.562c-0.21094 0.21094-0.21094 0.55859 0 0.76953l12.672 12.672c0.21094 0.21094 0.55859 0.21094 0.76953 0zm23.391 24.688-16.262-16.27-6.3594 6.3594 16.262 16.262zm8.4883-8.4883-16.258-16.262-6.3594 6.3594 16.258 16.262z"/>
</svg>
