<svg xmlns="http://www.w3.org/2000/svg" version="1.1" viewBox="10 10 80 80">
    <path d="m30.578 59.559-3.5586 20.742c-0.19141 1.1211 0.26953 2.2617 1.1914 2.9297 0.92187 0.67188 2.1484 0.76172 3.1602 0.23047l18.629-9.7891 18.621 9.7891c0.44141 0.23047 0.92188 0.33984 1.3984 0.33984 0.62109 0 1.2383-0.19141 1.7617-0.57031 0.92188-0.67188 1.3906-1.8086 1.1914-2.9297l-3.5586-20.738 15.07-14.691c0.82031-0.80078 1.1094-1.9883 0.76172-3.0781-0.35156-1.0898-1.2891-1.8789-2.4219-2.0391l-20.824-3.0234-9.3086-18.871c-0.51172-1.0195-1.5508-1.6719-2.6914-1.6719s-2.1914 0.64844-2.6914 1.6719l-9.3086 18.871-20.82 3.0312c-1.1289 0.16016-2.0703 0.96094-2.4219 2.0391-0.35156 1.0898-0.058593 2.2812 0.76172 3.0781zm9.8438-17.117c0.98047-0.14062 1.8203-0.76172 2.2617-1.6406l7.3164-14.832 7.3203 14.828c0.44141 0.87891 1.2812 1.5 2.2617 1.6406l16.371 2.3789-11.852 11.555c-0.71094 0.69141-1.0312 1.6797-0.85937 2.6602l2.8008 16.301-14.641-7.6992c-0.44141-0.23047-0.92188-0.33984-1.3984-0.33984-0.48047 0-0.96094 0.12109-1.3984 0.33984l-14.641 7.6992 2.8008-16.301c0.17188-0.96875-0.16016-1.9688-0.85938-2.6602l-11.855-11.551z" fill="#FFFFFF"/>
</svg>
