<svg xmlns="http://www.w3.org/2000/svg" xmlns:xlink="http://www.w3.org/1999/xlink" version="1.1" x="0px" y="0px" viewBox="0 0 128 128" xml:space="preserve">
    <path fill="white" d="M64.002,11.442c-28.982,0-52.561,23.576-52.561,52.555c0,28.982,23.579,52.56,52.561,52.56  
        c28.98,0,52.557-23.578,52.557-52.56C116.559,35.019,92.982,11.442,64.002,11.442z M34.806,102.772  
        c0.511-5.857,2.473-15.388,5.771-17.446l16.779-5.998c2.11,0.974,4.347,1.516,6.644,1.516s4.533-0.542,6.644-1.516l16.779,5.998  
        c3.298,2.059,5.261,11.59,5.771,17.447c-8.131,6.138-18.243,9.784-29.192,9.784C53.051,112.558,42.938,108.911,34.806,102.772z   
        M64,76.844c-9.028,0-17.25-11.324-17.25-23.758c0-11.449,7.255-19.758,17.25-19.758s17.25,8.31,17.25,19.758  
        C81.25,65.52,73.028,76.844,64,76.844z M96.87,99.702c-0.709-5.236-2.679-15.173-7.619-17.94c-0.098-0.054-0.199-0.101-0.304-0.138  
        l-14.013-5.009c6.085-5.003,10.316-13.877,10.316-23.528c0-13.767-8.937-23.758-21.25-23.758s-21.25,9.992-21.25,23.758  
        c0,9.651,4.231,18.525,10.316,23.528l-14.013,5.009c-0.105,0.038-0.207,0.084-0.304,0.138c-4.94,2.767-6.91,12.704-7.619,17.939  
        c-9.637-8.88-15.688-21.596-15.688-35.703c0-26.773,21.784-48.555,48.561-48.555c26.774,0,48.557,21.782,48.557,48.555  
        C112.559,78.105,106.508,90.822,96.87,99.702z"/>
</svg>
